<svg width="40" height="40" viewBox="0 0 40 40" fill="none" xmlns="http://www.w3.org/2000/svg">
<rect width="40" height="40" rx="20" fill="#02AF72" fill-opacity="0.15"/>
<path d="M19.2857 12.8571C18.8912 12.8571 18.5714 13.1769 18.5714 13.5714C18.5714 13.9659 18.8912 14.2857 19.2857 14.2857H20.7143C21.1088 14.2857 21.4286 13.9659 21.4286 13.5714C21.4286 13.1769 21.1088 12.8571 20.7143 12.8571H19.2857ZM15.5714 10C13.2834 10 11.4286 11.8548 11.4286 14.1429V17.1429H10.7143C10.3198 17.1429 10 17.4627 10 17.8571C10 18.2516 10.3198 18.5714 10.7143 18.5714H11.4286V28.1429C11.4286 29.1685 12.26 30 13.2857 30H15.2857C16.3114 30 17.1429 29.1685 17.1429 28.1429V27.1429H22.8571V28.1429C22.8571 29.1685 23.6886 30 24.7143 30H26.7143C27.74 30 28.5714 29.1685 28.5714 28.1429V18.5714H29.2857C29.6802 18.5714 30 18.2516 30 17.8571C30 17.4627 29.6802 17.1429 29.2857 17.1429H28.5714V14.1429C28.5714 11.8548 26.7166 10 24.4286 10H15.5714ZM27.1429 14.1429V20H12.8571V14.1429C12.8571 12.6438 14.0724 11.4286 15.5714 11.4286H24.4286C25.9276 11.4286 27.1429 12.6438 27.1429 14.1429ZM27.1429 27.1429V28.1429C27.1429 28.3796 26.951 28.5714 26.7143 28.5714H24.7143C24.4776 28.5714 24.2857 28.3796 24.2857 28.1429V27.1429H27.1429ZM15.7143 27.1429V28.1429C15.7143 28.3796 15.5224 28.5714 15.2857 28.5714H13.2857C13.049 28.5714 12.8571 28.3796 12.8571 28.1429V27.1429H15.7143ZM17.8571 23.2143C17.8571 23.806 17.3774 24.2857 16.7857 24.2857C16.194 24.2857 15.7143 23.806 15.7143 23.2143C15.7143 22.6226 16.194 22.1429 16.7857 22.1429C17.3774 22.1429 17.8571 22.6226 17.8571 23.2143ZM23.2143 24.2857C22.6226 24.2857 22.1429 23.806 22.1429 23.2143C22.1429 22.6226 22.6226 22.1429 23.2143 22.1429C23.806 22.1429 24.2857 22.6226 24.2857 23.2143C24.2857 23.806 23.806 24.2857 23.2143 24.2857Z" fill="#02AF72"/>
</svg>
