<svg width="40" height="40" viewBox="0 0 40 40" fill="none" xmlns="http://www.w3.org/2000/svg">
<rect width="40" height="40" rx="20" fill="#BFD0FD"/>
<path fill-rule="evenodd" clip-rule="evenodd" d="M29 10C28.3597 10 27.7456 10.2544 27.2929 10.7071L24.4004 13.5996C24.152 13.848 23.7915 13.9479 23.4507 13.8627L12 11L10.9811 12.0189C10.5905 12.4095 10.5905 13.0426 10.9811 13.4332C11.0571 13.5092 11.1448 13.5724 11.241 13.6205L20 18L16 22H11.618C11.2393 22 10.893 22.214 10.7236 22.5528L10 24L14 26L16 30L17.4472 29.2764C17.786 29.107 18 28.7607 18 28.382L18 24L22 20L26.3795 28.759C26.6265 29.253 27.2272 29.4533 27.7212 29.2063C27.8173 29.1582 27.9051 29.0949 27.9811 29.0189L29 28L26.1373 16.5493C26.0521 16.2085 26.152 15.848 26.4004 15.5996L29.2929 12.7071C29.7456 12.2544 30 11.6403 30 11C30 10.4477 29.5523 10 29 10Z" fill="#346AFF"/>
</svg>
