<svg width="40" height="40" viewBox="0 0 40 40" fill="none" xmlns="http://www.w3.org/2000/svg">
<rect width="40" height="40" rx="20" fill="#FF742C" fill-opacity="0.15"/>
<path d="M25.5 19C26.8255 19 27.91 20.0315 27.9947 21.3356L28 21.5V26.5C28 26.7761 27.7761 27 27.5 27C27.2545 27 27.0504 26.8231 27.0081 26.5899L27 26.5V24H13V26.5C13 26.7761 12.7761 27 12.5 27C12.2545 27 12.0504 26.8231 12.0081 26.5899L12 26.5V21.5C12 20.1745 13.0315 19.09 14.3356 19.0053L14.5 19H25.5ZM16.5 13H23.5C24.8255 13 25.91 14.0315 25.9947 15.3356L26 15.5V18H24V17.5C24 17.2545 23.8231 17.0504 23.5899 17.0081L23.5 17H21C20.7545 17 20.5504 17.1769 20.5081 17.4101L20.5 17.5V18H19.5V17.5C19.5 17.2545 19.3231 17.0504 19.0899 17.0081L19 17H16.5C16.2545 17 16.0504 17.1769 16.0081 17.4101L16 17.5V18H14V15.5C14 14.1745 15.0315 13.09 16.3356 13.0053L16.5 13Z" fill="#FF742C"/>
</svg>
