<svg width="24" height="24" viewBox="0 0 24 24" fill="none" xmlns="http://www.w3.org/2000/svg">
<path d="M9.46921 9.64317L8.76898 3.7684L8.76712 3.69481C8.76712 2.80619 9.48749 2.08582 10.3761 2.08582C11.1789 2.08582 11.9218 2.50548 12.3545 3.22023L12.4408 3.3809L15.3857 9.46992L19.3428 9.35411C20.7765 9.312 21.9728 10.4401 22.0151 11.8847L22.016 11.9499C22.016 13.3843 20.8532 14.5471 19.3969 14.5468L15.4327 14.4307L12.4409 20.6189C12.058 21.4109 11.2558 21.9141 10.3761 21.9141C9.48749 21.9141 8.76712 21.1938 8.76745 20.2828L8.77396 20.1648L9.48083 14.2565L7.34875 14.1943L7.07985 14.93C6.79933 15.6973 6.06936 16.2076 5.25238 16.2076C4.37644 16.2076 3.66636 15.4976 3.66636 14.6213L3.66672 13.8617L3.51168 13.8294C2.62169 13.6436 1.98401 12.8591 1.98401 11.9499C1.98401 11.0406 2.62216 10.2562 3.51223 10.0711L3.66672 10.0389L3.66636 9.27824C3.66636 8.47621 4.26448 7.80339 5.10101 7.70018L5.25238 7.69222C5.99732 7.69222 6.67525 8.11738 7.01684 8.81926L7.07966 8.96939L7.34929 9.7053L9.46921 9.64317ZM10.3761 3.58582C10.3159 3.58582 10.2671 3.63461 10.2668 3.67243L11.1532 11.0945L6.31273 11.2363L5.68532 9.52106L5.65277 9.44199C5.57841 9.2897 5.42298 9.19222 5.29887 9.19078L5.24064 9.19293C5.19905 9.19813 5.16636 9.2349 5.16636 9.27788L5.1673 11.2587L3.81776 11.5397C3.62336 11.5801 3.48401 11.7514 3.48401 11.9499C3.48401 12.1488 3.6235 12.3204 3.81779 12.361L5.1673 12.6419L5.16636 14.6216C5.16636 14.6691 5.20487 14.7076 5.25238 14.7076C5.43954 14.7076 5.60677 14.5907 5.67102 14.415L6.31127 12.6633L11.1652 12.8051L10.2683 20.2763L10.2671 20.3051C10.2671 20.3653 10.3159 20.4141 10.3761 20.4141C10.6804 20.4141 10.9579 20.2401 11.0904 19.966L14.5053 12.9029L19.4189 13.0471C20.0248 13.0471 20.5161 12.5559 20.5161 11.9609L20.5155 11.9177C20.4978 11.3122 19.9924 10.8357 19.3868 10.8535L14.4583 10.9977L11.1066 4.06554L11.0542 3.96735C10.9109 3.73104 10.6538 3.58582 10.3761 3.58582Z" fill="#9AA2AC"/>
</svg>
