<svg width="502" height="329" viewBox="0 0 502 329" fill="none" xmlns="http://www.w3.org/2000/svg">
<g clip-path="url(#clip0_1816_623)">
<path opacity="0.4" d="M686.779 -94.0182C570.726 -90.0182 455.526 -72.6461 343.47 -42.2474C312.092 -33.7258 281.037 -24.18 250.305 -13.6099C243.074 -11.1286 238.295 -3.91116 240.416 3.77598C242.348 10.8 250.571 16.1439 257.836 13.6516C365.115 -23.1539 476.624 -47.9285 589.523 -59.2299C621.853 -62.4683 654.272 -64.642 686.779 -65.751C694.42 -66.0162 700.938 -72.0565 700.938 -79.8818C700.932 -87.3369 694.448 -94.2835 686.779 -94.0182Z" fill="white"/>
<path opacity="0.4" d="M583.123 59.935C462.117 30.358 334.594 29.4572 213.08 56.8292C178.997 64.5163 145.465 74.4581 112.706 86.5886C107.396 88.5504 103.785 93.6789 105.38 99.465C106.787 104.566 112.944 108.755 118.282 106.776C232.565 64.5053 356.046 49.3963 477.206 62.4108C511.01 66.0891 544.531 72.008 577.547 80.1283C590.659 83.3336 596.257 63.1458 583.123 59.935Z" fill="white"/>
<path opacity="0.4" d="M575.657 123.665C455.14 109.68 333.078 117.744 215.459 147.461C182.213 155.874 149.428 166.01 117.239 177.829C108.441 181.056 112.256 195.231 121.143 191.965C266.311 138.651 422.034 120.272 575.657 138.321C579.627 138.785 582.961 134.624 582.999 130.993C583.044 126.655 579.572 124.124 575.657 123.665Z" fill="white"/>
<path opacity="0.4" d="M539.321 176.733C469.684 161.222 398.365 154.538 327.051 156.838C255.731 159.127 184.973 170.266 116.409 189.997C77.7517 201.177 39.9433 215.096 3.27186 231.649C-4.10374 234.964 2.29177 245.802 9.62309 242.497C73.6904 213.76 141.133 193.2 210.354 181.304C279.251 169.419 349.359 166.098 419.075 171.417C458.41 174.426 497.478 180.251 535.977 188.847C543.868 190.604 547.24 178.496 539.321 176.733Z" fill="white"/>
<path opacity="0.4" d="M554.14 232.063C410.566 212.551 263.353 224.533 125.07 268.115C85.9149 280.518 47.5706 295.346 10.2599 312.512C2.94575 315.863 1.14401 326.43 4.91907 332.882C9.309 340.383 17.9602 341.584 25.3029 338.219C151.338 280.49 290.258 251.39 428.834 252.547C468.096 252.809 507.303 255.558 546.218 260.778C554.182 261.857 562.212 258.856 564.55 250.375C566.459 243.438 562.169 233.149 554.14 232.063Z" fill="white"/>
<path d="M293.89 61.2636C357.217 44.7825 422.966 39.613 488.098 45.9943C474.343 43.0212 460.473 40.7885 446.425 39.9706C444.055 35.6988 441.441 31.2777 437.216 28.7908C432.991 26.304 426.74 26.5803 424.065 30.6864C424.41 27.7103 424.146 24.6953 423.288 21.8244C422.429 18.9535 420.995 16.2867 419.073 13.986C417.15 11.6852 414.779 9.79852 412.103 8.4405C409.427 7.08248 406.503 6.28146 403.507 6.08611C400.512 5.89075 397.508 6.30514 394.678 7.30409C391.848 8.30304 389.251 9.8657 387.045 11.8972C384.838 13.9287 383.069 16.3865 381.843 19.1215C380.618 21.8565 379.963 24.8116 379.917 27.8072C374.9 19.3021 367.297 11.93 357.884 8.81864C348.471 5.70731 337.064 7.7631 330.752 15.3452C324.954 22.2808 324.339 32.0845 324.627 41.1201C320.879 39.9043 315.729 42.1149 314.001 45.6517C313.337 47.0167 313.043 48.5807 312.135 49.8075C311.316 50.9128 310.081 51.6312 308.879 52.3165C303.652 55.2897 299.106 58.2905 293.89 61.2636Z" fill="white"/>
<path d="M94.5676 144.522C141.812 122.945 191.543 107.266 242.634 97.8406C232.113 98.9458 221.719 99.62 211.176 100.72C207.444 92.9829 203.424 84.4171 195.777 80.4215C188.579 76.6581 179.343 77.6584 172.765 82.411C166.186 87.1637 162.338 95.21 162.122 103.301C160.239 95.6576 153.141 89.5289 145.344 88.3463C137.548 87.1637 129.148 91.3692 125.704 98.4485C123.289 103.411 123.295 109.186 123.345 114.679C122.083 114.939 120.886 115.445 119.822 116.169C118.757 116.893 117.847 117.82 117.143 118.896C116.446 119.949 115.968 121.131 115.739 122.372C115.51 123.613 115.533 124.887 115.809 126.119C108.123 132.557 102.259 138.083 94.5676 144.522Z" fill="white"/>
<path d="M56 321C81.4429 304.49 110.954 290.993 138.73 278.541C166.693 266.011 196.418 257.93 226 249.842C216.95 249.842 208.158 250.446 199.33 252.493C193.977 241.754 183.529 234.327 171.76 231.804C166.871 230.759 161.626 230.517 157.001 232.401C152.933 234.057 149.671 237.219 146.802 240.538C141.236 246.978 136.518 255.201 137.995 263.573C137.196 262.628 135.497 262.756 134.256 262.642C133.012 262.578 131.766 262.715 130.566 263.047C128.714 263.391 126.963 264.144 125.442 265.251C124.693 265.814 124.103 266.56 123.729 267.416C123.354 268.273 123.206 269.211 123.301 270.14C119.732 264.319 110.604 261.69 103.838 262.649C97.0726 263.609 91.1062 268.335 88.1872 274.518C85.2683 280.702 85.2825 288.022 87.7233 294.369C76.9752 301.363 66.0487 313.061 56 321Z" fill="white"/>
<path d="M559.228 405.635C554.798 405.79 552.234 406.005 547.827 406.005H193C196.428 390.686 200.791 373.527 204.207 358.208C199.312 347.879 197.114 317.866 218.051 297.192C218.792 296.446 219.573 295.727 220.382 295.02C220.651 294.758 220.934 294.51 221.229 294.274C221.229 294.086 221.229 293.904 221.273 293.721C221.807 287.386 222.947 281.116 224.679 274.998C221.218 269.427 220.116 263.348 220.382 256.811C221.163 239.497 227.318 222.853 237.996 209.185C237.996 208.903 237.996 208.632 237.996 208.339C238.383 196.861 239.563 185.449 242.747 174.407C242.747 174.407 239.17 140.31 266.978 100.94C293.285 63.7147 360.612 6.52256 367.789 0.465683L368.342 -0.0151144L368.403 -0.0593262C372.778 -0.0593262 375.901 2.20095 378.11 5.95886L385.065 9.40178L391.71 12.6789C391.82 14.5579 392.668 16.2323 393.714 17.8295C394.268 18.6639 394.822 19.4542 395.431 20.2389C395.464 20.2832 395.486 20.3329 395.519 20.3771C403.233 30.8772 408.343 43.1512 411.057 55.8949C411.716 58.9289 412.131 61.9131 413.925 64.4773C414.18 64.2673 414.601 64.2231 414.872 64.0186V64.0629C416.851 62.5209 419.087 61.3403 421.478 60.5757L421.738 60.4873C428.014 64.4 434.158 68.5023 440.172 72.7945C443.106 80.4264 441.728 88.7546 441.179 96.9004C440.626 105.19 441.257 113.546 441.866 121.852C442.032 123.979 442.348 126.4 444.081 127.638C444.114 127.782 444.157 127.924 444.208 128.063C444.33 128.572 444.463 129.08 444.612 129.572C448.267 143.045 452.282 156.404 456.656 169.649C457.038 170.832 457.431 172.009 457.841 173.192C457.91 173.174 457.98 173.163 458.051 173.158C471.562 170.749 484.63 164.742 497.172 159.127C511.447 170.334 522.516 183.006 533.961 197.076C536.232 196.784 538.945 196.784 540.75 198.182C541.858 199.049 542.489 200.392 543.38 201.47C544.092 202.315 544.974 203.001 545.969 203.484C546.964 203.967 548.05 204.235 549.156 204.272C552.245 204.433 555.306 204.932 558.287 205.758L558.364 224.548L558.73 296.595L559.228 405.635Z" fill="#FEC268"/>
<g style="mix-blend-mode:multiply">
<path d="M534 197.071C522.56 182.99 511.48 170.318 497.205 159.122C484.674 164.731 471.601 170.727 458.085 173.148C458.013 173.148 457.941 173.148 457.874 173.181C452.85 158.282 448.306 143.241 444.241 128.058C444.203 127.915 444.158 127.777 444.125 127.633C442.375 126.395 442.054 123.969 441.91 121.841C441.29 113.552 440.664 105.207 441.218 96.8899C441.772 88.7496 443.14 80.4158 440.21 72.7895C434.193 68.5121 428.043 64.4079 421.76 60.4768L421.5 60.5652C420.088 67.6113 418.82 74.6187 416.616 81.4658C419.938 86.7325 419.136 93.5851 421.018 99.537C422.225 103.323 424.529 106.721 425.747 110.49C427.15 114.886 427.046 119.622 425.454 123.952C425.764 124.151 426.079 124.328 426.389 124.505L425.775 124.35C427.275 125.82 427.868 127.611 429.02 129.374C430.232 131.111 430.846 133.194 430.769 135.309C430.675 136.414 430.337 137.453 430.288 138.553C430.272 139.863 430.459 141.168 430.841 142.421C433.883 154.303 436.919 166.185 439.95 178.066L441.932 183.742L497.82 169.285L531.774 202.167L534.022 197.071H534Z" fill="#C3A178"/>
</g>
<g style="mix-blend-mode:multiply">
<path d="M437.962 106.163C431.55 101.566 425.382 96.8626 420.016 91.0931C377.817 109.203 335.401 128.412 299.11 156.525C262.819 184.638 213.521 237.514 224.69 274.988C221.223 269.423 220.116 263.344 220.393 256.801C221.165 239.487 227.319 222.844 238.001 209.18C238.001 208.893 238.001 208.627 238.001 208.334C263.14 173.032 314.277 128.694 416.422 81.8475C424.091 87.8712 431.373 94.0331 437.929 101.19C437.907 102.798 437.962 104.572 437.962 106.163Z" fill="#C3A178"/>
</g>
<g style="mix-blend-mode:multiply">
<path d="M365.02 205.808V165.621C365.02 165.621 363.359 143.781 382.185 134.834C401.012 125.886 399.971 149.268 399.971 149.268V190.495L365.02 205.808Z" fill="#C3A178"/>
</g>
<g style="mix-blend-mode:multiply">
<path d="M382.523 198.144V165.621C382.523 165.621 381.039 146.069 396.843 136.387C394.379 132.966 389.999 131.126 382.191 134.834C363.364 143.781 365.026 165.621 365.026 165.621V205.809L382.523 198.144Z" fill="#C3A178"/>
</g>
<g style="mix-blend-mode:multiply">
<path d="M341.47 214.646V171.689C341.47 171.689 341.271 155.597 331.165 161.526C319.283 168.501 318.984 189.888 318.984 189.888V226.638L341.47 214.646Z" fill="#C3A178"/>
</g>
<g style="mix-blend-mode:multiply">
<path d="M331.287 192.158C331.287 192.158 331.548 174.352 340.623 165.941C339.516 162.018 337.002 158.099 331.165 161.52C319.283 168.495 318.984 189.881 318.984 189.881V226.637L331.293 220.077L331.287 192.158Z" fill="#C3A178"/>
</g>
<g style="mix-blend-mode:multiply">
<path d="M302.355 233.109V196.597C302.355 196.597 301.558 183.063 290.959 189.092C280.361 195.121 281.269 210.33 281.269 210.33V248.351L302.355 233.109Z" fill="#C3A178"/>
</g>
<g style="mix-blend-mode:multiply">
<path d="M298.872 235.618V214.535C298.872 214.535 298.385 206.312 302.355 199.558V196.591C302.355 196.591 301.558 183.057 290.959 189.086C280.361 195.115 281.269 210.324 281.269 210.324V248.345L298.872 235.618Z" fill="#C3A178"/>
</g>
<g style="mix-blend-mode:multiply">
<path d="M269.857 255.064V224.012C269.857 224.012 270.084 212.18 262.659 214.684C255.233 217.187 255.366 234.7 255.366 234.7V265.647L269.857 255.064Z" fill="#C3A178"/>
</g>
<g style="mix-blend-mode:multiply">
<path d="M247.403 269.621V248.809C247.403 248.809 247.06 240.73 242.73 241.758C238.4 242.785 238.854 254.949 238.854 254.949V277.701L247.403 269.621Z" fill="#C3A178"/>
</g>
<g style="mix-blend-mode:multiply">
<path d="M470.56 264.277V335.711C463.86 336.186 449.657 337.794 437.464 339.259C426.002 340.618 416.312 341.851 416.312 341.851V277.695C416.312 277.695 415.846 244.023 443.893 241.664C447.62 241.276 451.386 241.515 455.033 242.371C471.529 246.532 470.56 264.277 470.56 264.277Z" fill="#C3A178"/>
</g>
<g style="mix-blend-mode:multiply">
<path d="M388.05 282.93V344.825L365.961 349.682L347.688 353.7V291.678C347.688 291.678 348.375 266.096 368.437 263.372C373.625 262.664 377.435 263.632 380.242 265.444C388.299 270.667 388.05 282.93 388.05 282.93Z" fill="#C3A178"/>
</g>
<g style="mix-blend-mode:multiply">
<path d="M323.314 303.857V355.733L317.106 357.612L294.813 364.376V316.374C294.813 316.374 292.992 284.322 309.637 281.796C314.858 281.011 318.153 282.901 320.196 285.852C324.703 292.302 323.314 303.857 323.314 303.857Z" fill="#C3A178"/>
</g>
<g style="mix-blend-mode:multiply">
<path d="M280.992 368.471V320.033C280.992 320.033 283.501 301.382 272.332 303.2C261.164 305.018 261.618 326.631 261.618 326.631V376.114L280.992 368.471Z" fill="#C3A178"/>
</g>
<g style="mix-blend-mode:multiply">
<path d="M277.914 369.682V325.709C277.914 325.709 277.731 316.668 280.616 309.787C279.68 305.797 277.438 302.349 272.31 303.156C261.141 304.974 261.595 326.587 261.595 326.587V376.07L277.914 369.682Z" fill="#C3A178"/>
</g>
<g style="mix-blend-mode:multiply">
<path d="M244.214 380.071V337.756C244.214 337.756 244.413 318.646 238.843 320.011C233.272 321.376 233.499 339.574 233.499 339.574V384.166L244.214 380.071Z" fill="#C3A178"/>
</g>
<g style="mix-blend-mode:multiply">
<path d="M242.957 380.552V340.137C242.949 336.565 243.215 332.998 243.754 329.466C243.201 324.492 241.85 319.276 238.843 320.011C233.272 321.376 233.499 339.574 233.499 339.574V384.166L242.957 380.552Z" fill="#C3A178"/>
</g>
<g style="mix-blend-mode:multiply">
<path d="M511.768 204.278L511.508 215.06L492.897 197.845C440.692 207.848 334.327 239.376 267.47 272.467C191.333 310.157 204.207 358.209 204.207 358.209C199.312 347.886 197.147 317.822 218.056 297.192C218.815 296.452 219.59 295.733 220.387 295.02C220.664 294.761 220.941 294.501 221.234 294.263C240.338 277.237 269.685 261.409 302.355 244.023C364.793 210.771 495.871 183.742 495.871 183.742C495.871 183.742 510.556 202.968 511.768 204.278Z" fill="#C3A178"/>
</g>
<g style="mix-blend-mode:multiply">
<path d="M473.522 215.214C472.913 215.364 407.269 232.805 407.269 232.805V277.093H408.93V242.211L473.511 226.284L473.522 215.214Z" fill="#C3A178"/>
</g>
<g style="mix-blend-mode:multiply">
<path d="M394.655 237.508V247.063L345.723 262.377V280.542H343.934V253.358L394.655 237.508Z" fill="#C3A178"/>
</g>
<g style="mix-blend-mode:multiply">
<path d="M328.397 259.021L290.406 274.815V300.104H292.532V279.563L328.397 267.117V259.021Z" fill="#C3A178"/>
</g>
<g style="mix-blend-mode:multiply">
<path d="M250.366 297.601V303.918L232.929 316.087V310.284L250.366 297.601Z" fill="#C3A178"/>
</g>
<g style="mix-blend-mode:multiply">
<path d="M499.83 220.641C504.332 223.227 508.213 226.521 511.978 230.091C512.787 229.632 513.512 228.952 514.321 228.494C508.684 222.155 503.169 215.733 496.939 209.975C493.681 210.687 490.464 211.578 487.304 212.644C487.304 213.296 486.895 213.495 486.895 214.153V224.62C490.998 224.62 495.821 221.508 499.83 220.641Z" fill="#C3A178"/>
</g>
<g style="mix-blend-mode:multiply">
<path d="M510.904 250.699C512.327 253.523 513.75 256.341 514.98 259.254C516.209 262.166 517.267 265.222 518.38 268.223C526.53 290.19 538.424 310.555 550.252 330.792C552.079 322.973 549.327 314.766 545.606 307.676C541.885 300.585 537.134 293.91 534.498 286.322C532.472 280.469 531.769 274.258 530.257 268.251C528.745 262.244 526.242 256.198 521.48 252.224C521.037 251.854 521.021 247.881 520.833 247.09C520.443 245.411 519.887 243.774 519.171 242.205C517.662 238.921 515.532 235.958 512.898 233.479C510.378 231.103 507.261 228.942 503.933 227.859C498.445 226.074 502.931 234.137 503.839 236.148C506.037 241.067 508.473 245.886 510.904 250.699Z" fill="#C3A178"/>
</g>
<g style="mix-blend-mode:multiply">
<path d="M370.95 13.5028C249.076 96.6134 242.774 174.391 242.774 174.391C242.774 174.391 239.197 140.294 267.005 100.935C293.313 63.7041 361.266 5.9814 368.442 -0.0699463L370.95 13.5028Z" fill="#C3A178"/>
</g>
<g style="mix-blend-mode:multiply">
<path d="M255.682 188.091L254.923 187.621C255.017 187.472 264.602 172.319 289.869 149.174C313.164 127.832 354.959 95.1101 421.782 60.3936L422.192 61.1838C294.514 127.506 256.053 187.494 255.682 188.091Z" fill="#C3A178"/>
</g>
<g style="mix-blend-mode:multiply">
<path d="M304.083 108.291L314.57 99.493V80.2337C314.57 80.2337 314.293 74.1879 309.326 76.4371C304.083 78.8134 304.083 85.5445 304.083 85.5445V108.291Z" fill="#C3A178"/>
</g>
<g style="mix-blend-mode:multiply">
<path d="M455.034 242.371C449.496 244.443 444.125 247.344 441.19 252.318C438.455 256.988 438.322 262.68 438.261 268.09C437.999 291.806 437.737 315.521 437.475 339.236C426.013 340.596 416.323 341.828 416.323 341.828V277.695C416.323 277.695 415.858 244.023 443.904 241.663C447.627 241.277 451.389 241.516 455.034 242.371Z" fill="#C3A178"/>
</g>
<g style="mix-blend-mode:multiply">
<path d="M380.247 265.444C378.097 266.21 376.21 267.574 374.81 269.373C372.628 272.137 371.543 275.613 370.718 279.05C368.47 288.533 367.994 298.331 367.567 308.074C366.958 321.935 366.423 335.798 365.961 349.666L347.688 353.683V291.678C347.688 291.678 348.375 266.096 368.437 263.372C373.63 262.664 377.44 263.632 380.247 265.444Z" fill="#C3A178"/>
</g>
<g style="mix-blend-mode:multiply">
<path d="M315.091 297.021C314.061 302.31 314.376 307.753 314.681 313.114C315.489 327.151 316.298 341.182 317.106 355.208C317.173 356.008 317.173 356.812 317.106 357.612L294.813 364.376V316.374C294.813 316.374 292.992 284.322 309.637 281.796C314.858 281.011 318.153 282.901 320.196 285.852C319.476 286.958 318.59 287.98 317.981 289.013C316.59 291.509 315.614 294.213 315.091 297.021Z" fill="#C3A178"/>
</g>
<g style="mix-blend-mode:multiply">
<path d="M497.266 163.233C502.851 168.06 508.109 173.249 513.008 178.768C519.099 185.626 524.747 193.098 532.389 198.193C531.843 199.444 531.624 200.813 531.752 202.172C520.273 191.357 508.894 180.52 497.82 169.285C497.389 167.298 497.203 165.265 497.266 163.233Z" fill="#ECD2AA"/>
</g>
<g style="mix-blend-mode:multiply">
<path d="M414.894 64.058C414.7 64.5559 414.402 65.0069 414.02 65.3813C413.638 65.7557 413.181 66.0449 412.679 66.2299C411.67 66.5947 410.615 66.8179 409.545 66.8931C407.211 61.9229 404.513 57.1314 401.472 52.5577C400.768 51.354 399.837 50.2975 398.731 49.4464C396.206 47.7443 392.739 48.308 389.976 47.0258C390.314 42.124 389.329 37.1945 387.717 32.5524C386.964 30.4081 386.084 28.3026 385.137 26.2357C384.672 25.2189 384.192 24.2131 383.697 23.2184C383.359 22.5276 382.08 20.8365 382.147 20.107C382.263 18.637 386.322 19.582 387.512 19.6594L394.456 20.1512C394.788 20.1512 395.115 20.1955 395.436 20.2397C395.475 20.2839 395.503 20.3281 395.536 20.3723C403.238 30.8723 408.349 43.1574 411.068 55.8901C411.721 58.9351 412.286 62.1293 414.08 64.6936C414.351 64.467 414.617 64.257 414.894 64.058Z" fill="#C3A178"/>
</g>
<g style="mix-blend-mode:multiply">
<path d="M371.205 15.2549C367.334 17.3337 363.574 19.6137 359.942 22.0854C356.459 24.4673 352.744 26.6999 349.737 29.6731C350.408 29.3321 351.13 29.1008 351.875 28.9879C352.248 28.9351 352.628 28.9717 352.985 29.0947C353.341 29.2177 353.663 29.4235 353.923 29.6952C354.134 29.9439 354.278 30.2479 354.477 30.491C355.297 31.3421 356.72 30.9 357.799 30.4026C357.945 31.5569 358.521 32.6141 359.413 33.363C360.305 34.1119 361.447 34.4973 362.611 34.4424C363.946 34.3263 365.38 33.641 366.532 34.3263C367.346 34.8126 367.639 35.8184 368.337 36.4816C369.821 37.9461 371.476 36.9237 373.193 37.2387C375.275 37.6255 375.53 40.0295 375.33 41.7261C375.225 42.5827 375.109 43.5111 375.541 44.2571C375.927 44.7734 376.399 45.2201 376.936 45.5779C378.824 47.1695 379.771 50.104 380.53 52.3643C381.466 55.1275 382.235 57.968 383.055 60.7809C384.666 66.3073 386.488 71.8999 389.976 76.5586C384.749 56.1443 377.662 35.321 371.205 15.2549Z" fill="#FEF1CB"/>
</g>
<g style="mix-blend-mode:multiply">
<path d="M281.23 278.607L256.291 294.645V300.105V322.437L257.52 321.679L257.808 299.254L281.23 286.123V278.607Z" fill="#C3A178"/>
</g>
<g style="mix-blend-mode:multiply">
<path d="M391.278 19.2169C386.117 18.6201 381.178 16.8516 376.294 15.0887C374.555 14.4698 372.822 13.8435 371.094 13.2098C370.33 8.83844 369.361 4.32894 368.387 -0.0534445L368.448 -0.0976562C372.822 -0.0976562 375.945 2.16262 378.154 5.92053L385.109 9.36344C385.172 9.57581 385.251 9.78281 385.347 9.98239C385.721 10.4939 386.176 10.9417 386.693 11.3087C386.95 11.4964 387.153 11.7486 387.281 12.0397C387.41 12.3308 387.459 12.6505 387.424 12.9666C387.313 12.903 387.188 12.8656 387.06 12.8572C386.933 12.8488 386.804 12.8696 386.686 12.9181C386.567 12.9666 386.461 13.0415 386.376 13.1371C386.291 13.2326 386.229 13.3463 386.194 13.4695C386.145 13.7229 386.171 13.9851 386.27 14.2237C386.368 14.4624 386.535 14.667 386.748 14.8124C387.184 15.0997 387.684 15.2726 388.205 15.3153C388.716 15.3663 389.221 15.4719 389.711 15.6303C389.417 16.9787 390.397 18.2166 391.278 19.2169Z" fill="#FEE1B4"/>
</g>
<g style="mix-blend-mode:multiply">
<path d="M331.01 147.312C314.723 124.294 300.853 99.6645 289.619 73.8116C280.793 83.317 272.875 92.6012 267.005 100.924C239.197 140.283 242.774 174.38 242.774 174.38C239.596 185.433 238.411 196.834 238.023 208.323C238.023 208.605 238.023 208.876 238.023 209.168C227.335 222.834 221.177 239.482 220.404 256.8C220.127 263.343 221.234 269.422 224.701 274.987C222.961 281.106 221.819 287.378 221.29 293.716C221.29 293.898 221.29 294.075 221.245 294.269C220.958 294.512 220.692 294.76 220.398 295.02C219.586 295.72 218.809 296.444 218.067 297.192C197.147 317.822 199.312 347.885 204.207 358.208C200.791 373.527 196.422 390.687 193.005 406.006H547.827C552.256 406.006 554.82 405.79 559.228 405.636L558.779 304.901C500.085 289.378 444.817 260.773 398.615 221.409C373.084 199.608 350.374 174.718 331.01 147.312Z" fill="#FDF1DA"/>
</g>
</g>
<defs>
<clipPath id="clip0_1816_623">
<rect width="502" height="329" rx="16" fill="white"/>
</clipPath>
</defs>
</svg>
